<svg id="Capa_1" enable-background="new 0 0 512 512" height="512" viewBox="0 0 512 512" width="512" xmlns="http://www.w3.org/2000/svg"><g><g><path clip-rule="evenodd" d="m336.869 347.459c-60.897-90.651-148.044-207.304-99.14-323.214 4.06-4.556 9.979-6.849 15.898-6.818 10.63-.062 21.229 7.314 21.198 22.128v12.273c0 94.246 136.67 85.847 160.254 217.191-14.039 15.868-29.72 56.436-44.968 65.703-12.21 7.437-41.125 6.786-53.242 12.737z" fill="#fed1a3" fill-rule="evenodd"/></g><g><path clip-rule="evenodd" d="m217.12 124.473c-30.991 32.758-90.618 83.213-90.618 165.496 0 80.3-5.052 128.337 36.136 144.174h-35.547-17.975c-80.36-10.289-116.557-84.019-107.849-154.122 17.758-142.873 161.959-131.406 161.959-228.193v-12.273c-.062-14.814 10.537-22.19 21.167-22.128 5.919-.031 11.839 2.262 15.898 6.818-1.55 3.099 5.021 6.88 5.021 11.281 0 39.484 32.943 66.602 11.808 88.947z" fill="#fed1a3" fill-rule="evenodd"/></g><g><path clip-rule="evenodd" d="m495.047 198.605c.775 180.62-71.31 289.867-273.682 272.48-15.434-10.041-27.923-22.5-36.074-36.942-.124-.186-.217-.403-.341-.589-6.539-11.808-10.165-24.917-10.165-39.05 0-11.653-.186-12.676 12.613-15 1.89-.341 3.905-.682 5.981-1.085 14.814-2.665 34.493-6.353 57.24-12.18 30.278-7.779 66.042-19.37 102.983-37.5 12.087-5.95 24.297-12.583 36.507-19.99 15.248-9.298 30.929-23.864 44.968-39.732 20.268-22.872 37.127-48.44 44.41-64.649 4.465-9.978 10.198-9.637 15.56-5.763z" fill="#ffe5c1" fill-rule="evenodd"/></g><g><path clip-rule="evenodd" d="m353.604 328.74c-36.941 18.13-72.705 29.721-102.983 37.5-22.747 5.827-42.427 9.514-57.24 12.18l-5.981 1.085c-12.799 2.324-12.613 3.347-12.613 15 0 14.132 3.626 27.242 10.165 39.05.124.186.217.403.341.589h-1.828-20.826c-41.187-15.837-81.63-63.874-81.63-144.174 0-82.283 59.658-132.738 90.618-165.496 22.252-23.492 26.218-52.903 26.218-74.132v-14.816c-.031-4.401.899-8.182 2.448-11.281 3.75-7.407 11.25-11.095 18.719-11.064 7.5-.031 14.969 3.657 18.719 11.064 1.581 3.099 2.479 6.88 2.479 11.281v14.814c0 21.229 3.936 50.641 26.187 74.132 30.991 32.758 90.618 83.213 90.618 165.496-.002 13.885-1.211 26.809-3.411 38.772z" fill="#fed1a3" fill-rule="evenodd"/></g><g><path clip-rule="evenodd" d="m261.592 163.367c31.518 35.61 70.505 72.552 68.707 165.775-.062 3.502-.062 6.973-.217 10.351 7.748-3.285 15.619-6.88 23.522-10.754 2.2-11.963 3.409-24.886 3.409-38.771 0-82.283-59.627-132.738-90.618-165.496-22.252-23.492-26.187-52.903-26.187-74.132v-14.814c0-4.401-.899-8.182-2.479-11.281-3.75-7.407-11.219-11.095-18.719-11.064-1.023 0-2.076.062-3.099.217 1.395 2.975 2.169 6.508 2.169 10.599v14.814c0 60.279 1.395 76.953 43.512 124.556z" fill="#ffbc85" fill-rule="evenodd"/></g><g><path clip-rule="evenodd" d="m162.637 434.143c-41.187-15.837-81.63-63.874-81.63-144.174 0-82.283 59.658-132.738 90.618-165.496 22.252-23.492 26.218-52.903 26.218-74.132v-14.815c-.031-4.401.899-8.182 2.448-11.281-4.06-4.556-9.979-6.849-15.898-6.818-4.215 6.26-2.169 12.707-2.169 22.314v14.783c0 21.26-13.14 44.907-35.361 68.399-30.991 32.758-90.649 91.24-90.649 173.523 0 71.374 31.952 117.242 67.994 137.697h2.882z" fill="#ffbc85" fill-rule="evenodd"/></g><g><path clip-rule="evenodd" d="m221.365 471.085c192.361 6.849 263.702-103.172 273.682-272.48 10.537 5.393 15.65 38.988 16.797 78.037 4.339 149.164-82.56 212.759-169.211 221.189-13.667 1.333-27.303 1.302-40.567 0-19.586-1.89-38.398-6.508-55.257-13.481-9.111-3.75-17.634-8.213-25.444-13.265z" fill="#fed1a3" fill-rule="evenodd"/></g></g></svg>