<svg height="512pt" viewBox="0 0 512 512.00032" width="512pt" xmlns="http://www.w3.org/2000/svg"><path d="m261.816406 150.578125-253.886718 253.886719c-10.5625 10.558594-10.5625 27.683594 0 38.242187 10.558593 10.558594 27.683593 10.558594 38.242187 0l23.570313 23.128907c-10.558594 10.558593-10.558594 27.683593 0 38.242187 10.5625 10.5625 27.683593 10.5625 38.246093 0l254.609375-254.609375zm0 0" fill="#00bd4f"/><path d="m505.835938 64.308594c-2.964844-2.28125-6.082032-4.148438-9.292969-5.628906 15.980469-19.117188 20.363281-41.65625 9.398437-52.621094-12.070312-12.070313-38.160156-5.546875-58.277344 14.570312-20.113281 20.113282-26.636718 46.207032-14.566406 58.277344l-23.097656 23.09375c18.707031 18.707031 49.039062 18.707031 67.746094 0l28.613281-28.613281c2.574219-2.574219 2.363281-6.859375-.523437-9.078125zm0 0" fill="#00bd4f"/><path d="m447.695312 6.164062c-2.222656-2.886718-6.507812-3.097656-9.082031-.523437l-28.613281 28.613281c-18.707031 18.707032-18.707031 49.039063 0 67.746094l33.871094-33.871094c16.105468-16.105468 18.96875-42.277344 3.824218-61.964844zm0 0" fill="#60f375"/><path d="m476.800781 35.199219c-11.667969-11.667969-35.363281-6.890625-55.480469 13.226562-20.113281 20.113281-29.03125 47.949219-17.363281 59.617188 11.664063 11.667969 39.5 2.746093 59.613281-17.367188 20.117188-20.117187 24.898438-43.808593 13.230469-55.476562zm0 0" fill="#28d05b"/><path d="m484.578125 101.195312c-24.902344-19.144531-58.101563-15.671874-78.621094 4.847657 20.4375-20.4375 24.066407-53.640625 4.847657-78.621094-2.816407-3.660156-8.253907-3.929687-11.519532-.664063l-36.304687 36.308594c-16.867188 16.863282-21.734375 41.167969-14.636719 62.34375l-340.421875 340.425782c-10.5625 10.5625-10.5625 27.683593 0 38.242187 10.558594 10.5625 27.679687 10.5625 38.242187 0l340.425782-340.421875c21.175781 7.097656 45.480468 2.230469 62.347656-14.636719l36.304688-36.304687c3.265624-3.265625 3-8.703125-.664063-11.519532zm0 0" fill="#60f375"/><path d="m484.578125 101.195312c-6.554687-5.039062-13.683594-8.511718-21.007813-10.519531-.058593.058594-.125.128907-.183593.1875l-36.304688 36.304688c-11.648437 11.648437-30.601562 11.648437-42.25 0-10.148437-10.148438-25.59375-11.757813-37.429687-4.84375 2.386718 8.609375 6.691406 16.796875 12.933594 23.878906l-354.949219 354.945313c.765625 1.023437 1.605469 2.003906 2.535156 2.929687 10.558594 10.5625 27.679687 10.5625 38.242187 0l340.425782-340.425781c21.175781 7.101562 45.480468 2.234375 62.347656-14.632813l36.304688-36.304687c3.265624-3.265625 3-8.703125-.664063-11.519532zm0 0" fill="#28d05b"/><path d="m340.996094 104.9375c-2.964844-2.28125-6.082032-4.148438-9.289063-5.628906 15.976563-19.117188 20.359375-41.652344 9.394531-52.617188-12.070312-12.070312-38.160156-5.546875-58.277343 14.566406-20.113281 20.117188-26.636719 46.207032-14.566407 58.277344l-23.097656 23.09375c18.707032 18.710938 49.039063 18.710938 67.746094 0l28.613281-28.613281c2.574219-2.570313 2.363281-6.859375-.523437-9.078125zm0 0" fill="#00bd4f"/><path d="m282.855469 46.792969c-2.21875-2.882813-6.507813-3.097657-9.082031-.523438l-28.613282 28.617188c-18.707031 18.707031-18.707031 49.035156 0 67.742187l33.871094-33.871094c16.109375-16.105468 18.96875-42.273437 3.824219-61.964843zm0 0" fill="#60f375"/><path d="m311.960938 75.828125c-11.667969-11.664063-35.363282-6.886719-55.480469 13.226563-20.113281 20.117187-29.03125 47.953124-17.363281 59.621093 11.667968 11.664063 39.5 2.746094 59.613281-17.371093 20.117187-20.113282 24.898437-43.808594 13.230469-55.476563zm0 0" fill="#28d05b"/><path d="m319.738281 141.824219c-24.902343-19.144531-58.101562-15.667969-78.621093 4.847656 20.4375-20.433594 24.066406-53.636719 4.847656-78.621094-2.816406-3.660156-8.253906-3.929687-11.519532-.664062l-36.304687 36.308593c-16.867187 16.863282-21.734375 41.171876-14.636719 62.347657l-175.574218 175.574219c-10.5625 10.5625-10.5625 27.683593 0 38.246093 10.558593 10.558594 27.683593 10.558594 38.242187 0l175.578125-175.578125c21.175781 7.101563 45.480469 2.230469 62.347656-14.632812l36.304688-36.308594c3.265625-3.265625 3-8.703125-.664063-11.519531zm0 0" fill="#60f375"/><path d="m319.738281 141.824219c-6.554687-5.039063-13.683593-8.511719-21.007812-10.519531-.058594.058593-.125.128906-.183594.1875l-36.304687 36.308593c-11.648438 11.648438-30.601563 11.644531-42.25-.003906-10.148438-10.144531-25.59375-11.757813-37.429688-4.84375 2.386719 8.609375 6.691406 16.796875 12.933594 23.878906l-190.101563 190.101563c.765625 1.019531 1.605469 2 2.535157 2.929687 10.558593 10.558594 27.683593 10.558594 38.242187 0l175.578125-175.578125c21.175781 7.101563 45.480469 2.230469 62.347656-14.632812l36.304688-36.308594c3.265625-3.265625 3-8.703125-.664063-11.519531zm0 0" fill="#28d05b"/><path d="m465.136719 229.207031c-2.964844-2.28125-6.082031-4.148437-9.289063-5.628906 15.976563-19.117187 20.359375-41.652344 9.394532-52.621094-12.070313-12.066406-38.160157-5.542969-58.273438 14.570313-20.117188 20.117187-26.640625 46.207031-14.570312 58.273437l-23.097657 23.097657c18.707031 18.707031 49.039063 18.707031 67.746094 0l28.613281-28.613282c2.574219-2.574218 2.363282-6.859375-.523437-9.078125zm0 0" fill="#00bd4f"/><path d="m406.996094 171.0625c-2.21875-2.886719-6.507813-3.097656-9.082032-.523438l-28.613281 28.613282c-18.707031 18.707031-18.707031 49.039062 0 67.746094l33.871094-33.871094c16.109375-16.105469 18.96875-42.277344 3.824219-61.964844zm0 0" fill="#60f375"/><path d="m436.101562 200.097656c-11.664062-11.667968-35.363281-6.890625-55.476562 13.226563-20.117188 20.113281-29.035156 47.953125-17.367188 59.621093 11.667969 11.664063 39.5 2.746094 59.617188-17.371093 20.113281-20.117188 24.894531-43.808594 13.226562-55.476563zm0 0" fill="#28d05b"/><path d="m443.878906 266.09375c-24.902344-19.144531-58.101562-15.671875-78.621094 4.847656 20.4375-20.4375 24.066407-53.640625 4.847657-78.621094-2.816407-3.664062-8.25-3.929687-11.519531-.664062l-36.304688 36.304688c-16.867188 16.867187-21.734375 41.171874-14.632812 62.347656l-175.535157 175.53125c-10.558593 10.5625-10.558593 27.683594 0 38.246094 10.554688 10.550781 27.691407 10.550781 38.242188 0l175.535156-175.535157c21.175781 7.101563 45.480469 2.234375 62.347656-14.632812l36.304688-36.304688c3.265625-3.265625 3-8.703125-.664063-11.519531zm0 0" fill="#60f375"/><path d="m443.878906 266.09375c-6.554687-5.039062-13.683594-8.511719-21.003906-10.519531-.058594.058593-.125.128906-.183594.1875l-36.308594 36.304687c-11.648437 11.648438-30.601562 11.648438-42.25 0-10.144531-10.148437-25.589843-11.757812-37.425781-4.84375 2.382813 8.609375 6.6875 16.796875 12.929688 23.878906l-190.054688 190.054688c.761719 1.019531 1.605469 2 2.53125 2.929688 5.285157 5.28125 12.207031 7.914062 19.128907 7.914062 7.375 0 13.835937-2.636719 19.117187-7.914062l175.53125-175.535157c21.175781 7.101563 45.480469 2.234375 62.347656-14.632812l36.304688-36.304688c3.265625-3.265625 3-8.703125-.664063-11.519531zm0 0" fill="#28d05b"/><path d="m256.421875 433.472656c-3.953125 0-7.910156-1.507812-10.925781-4.523437l-162.449219-162.449219c-6.035156-6.035156-6.035156-15.820312 0-21.855469 6.035156-6.03125 15.820313-6.035156 21.855469 0l162.445312 162.449219c6.035156 6.035156 6.035156 15.820312 0 21.855469-3.015625 3.015625-6.972656 4.523437-10.925781 4.523437zm0 0" fill="#ffc98c"/><path d="m278.273438 411.621094c-3.953126 0-7.90625-1.507813-10.925782-4.527344l-162.445312-162.445312c-6.035156-6.035157-6.035156-15.820313 0-21.855469 6.03125-6.03125 15.816406-6.035157 21.851562 0l162.449219 162.449219c6.035156 6.035156 6.035156 15.820312 0 21.851562-3.019531 3.019531-6.972656 4.527344-10.929687 4.527344zm0 0" fill="#ffb578"/></svg>