<svg id="Layer_1" height="512" viewBox="0 0 512 512" width="512" xmlns="http://www.w3.org/2000/svg" data-name="Layer 1"><path d="m372.67 282.53c.25-117-77.65-189.92-144.85-208.23a28.807 28.807 0 0 0 -7.64-1.02 30.349 30.349 0 0 0 -13.62 3.26 30.271 30.271 0 0 1 -22.72 1.81l-5.41-1.72a30.258 30.258 0 0 0 -18.84.18c-64.59 21.95-133.63 95.87-132.76 198.37 1.33 155.51 98.92 219.82 170.74 219.82 37.73 0 91.57-24.46 127.09-61.88l47.68-131.38-.05-.14c.26-6.38.37-13.12.38-19.07z" fill="#a0b559"/><path d="m174.17 17.07c14.99 2.03 28.25 22.82 32.39 59.47a30.271 30.271 0 0 1 -22.72 1.81l-5.41-1.72c5.66-29.71-21.13-52.32-21.13-52.32s10.14-8.15 16.87-7.24z" fill="#8c6238"/><path d="m324.66 433.12c-95.32 18.88-182.59-45.69-207.2-69.17a6.615 6.615 0 0 1 2.6-11.09l12.59-3.93v.01s177.79 158.57 300.21-15.68c13.59-19.34 26.39-45.6 35.68-74.37l8.09-2.52a6.606 6.606 0 0 1 8.4 7.7c-8.81 42.19-32.29 84.75-53.59 107.04-34.84 36.45-71.37 54.99-106.78 62.01z" fill="#97a040"/><path d="m427.6 271.66a6.646 6.646 0 0 0 -3.29 2.32q-1.98 2.61-3.97 5.11a.01.01 0 0 0 -.01.01c-91.46 115.02-209.39 76.75-242.57 62.76-2.96-1.25-5.25-2.3-6.78-3.04a6.564 6.564 0 0 0 -4.79-.35l-33.54 10.46v.01s177.79 158.57 300.21-15.68c13.59-19.34 26.39-45.6 35.68-74.37z" fill="#f9d669"/><path d="m296.23 324.26c24.92-5.63 51.21-12.98 76.11-22.52a325.347 325.347 0 0 0 47.99-22.64c-91.46 115.02-209.39 76.75-242.57 62.76a818.92 818.92 0 0 0 118.47-17.6z" fill="#f5b95f"/><path d="m56.83 275.18c-.848-99.9 64.711-172.642 127.836-196.59-.276-.079-.552-.153-.826-.24l-5.41-1.72a30.258 30.258 0 0 0 -18.84.18c-64.59 21.95-133.63 95.87-132.76 198.37 1.33 155.51 98.92 219.82 170.74 219.82a103.68 103.68 0 0 0 14.081-1.028c-69.497-8.747-153.587-74.512-154.821-218.792z" fill="#849150"/><g fill="#5e5649"><path d="m240.65 351.569a6.007 6.007 0 1 1 4.24-1.759 6.028 6.028 0 0 1 -4.24 1.759z"/><path d="m286.74 351.91a6.011 6.011 0 1 1 4.24-1.761 6.049 6.049 0 0 1 -4.24 1.761z"/><path d="m305.98 352.21a6.009 6.009 0 1 1 4.24-1.76 6.033 6.033 0 0 1 -4.24 1.76z"/><path d="m354.038 327.875a6 6 0 0 1 -5.73-4.227l-.286-.923a6 6 0 1 1 11.463-3.551l.286.924a6.007 6.007 0 0 1 -5.733 7.777z"/><path d="m373.42 317.14a6.009 6.009 0 1 1 4.24-1.76 6.029 6.029 0 0 1 -4.24 1.76z"/><path d="m295.33 339.47a6.009 6.009 0 1 1 4.24-1.76 6.029 6.029 0 0 1 -4.24 1.76z"/><path d="m258.14 353.1a6.009 6.009 0 1 1 4.24-1.76 6.012 6.012 0 0 1 -4.24 1.76z"/><path d="m272.36 347.38a6.009 6.009 0 1 1 4.24-1.76 6.012 6.012 0 0 1 -4.24 1.76z"/><path d="m312.6 339.26a6 6 0 1 1 0-12 6 6 0 1 1 0 12z"/><path d="m327.5 341.71a6.009 6.009 0 1 1 4.24-1.76 6.057 6.057 0 0 1 -4.24 1.76z"/><path d="m339.37 327.87a6.011 6.011 0 1 1 4.24-1.761 6.013 6.013 0 0 1 -4.24 1.761z"/></g></svg>